# xmcd
#
# Track frame offsets:
#	150
#	20000
#	36345
#	70123
#	93095
#	113205
#	133098
#	153325
#	171795
#	190503
#	208548
#	236505
#	248665
#	266725
#
# Disc length: 4002 seconds
#
# Revision: 2
# Processed by: cddbd v1.5.1PL0 Copyright (c) Steve Scherf et al.
# Submitted via: audiograbber 1.83.01
#
DISCID=b80fa00e
DTITLE=Phonus Balonus - Live
DYEAR=1993
DGENRE=Blues
TTITLE0=let´s burn down the cornfield
TTITLE1=county jail
TTITLE2=lonesome song
TTITLE3=I got what it takes
TTITLE4=come to mama
TTITLE5=stop
TTITLE6=mistreated woman
TTITLE7=too late
TTITLE8=it took a long time
TTITLE9=mojo woman
TTITLE10=downhome blues
TTITLE11=Dr.Feelgood
TTITLE12=I´ve been there
TTITLE13=FBI-blues
EXTD=
EXTT0=
EXTT1=
EXTT2=
EXTT3=
EXTT4=
EXTT5=
EXTT6=
EXTT7=
EXTT8=
EXTT9=
EXTT10=
EXTT11=
EXTT12=
EXTT13=
PLAYORDER=
